<svg width="43" height="43" viewBox="0 0 43 43" fill="none" xmlns="http://www.w3.org/2000/svg">
<path d="M34.625 5.75H30.6875V4.4375C30.6875 4.0894 30.5492 3.75556 30.3031 3.50942C30.0569 3.26328 29.7231 3.125 29.375 3.125C29.0269 3.125 28.6931 3.26328 28.4469 3.50942C28.2008 3.75556 28.0625 4.0894 28.0625 4.4375V5.75H14.9375V4.4375C14.9375 4.0894 14.7992 3.75556 14.5531 3.50942C14.3069 3.26328 13.9731 3.125 13.625 3.125C13.2769 3.125 12.9431 3.26328 12.6969 3.50942C12.4508 3.75556 12.3125 4.0894 12.3125 4.4375V5.75H8.375C7.67881 5.75 7.01113 6.02656 6.51884 6.51884C6.02656 7.01113 5.75 7.67881 5.75 8.375V34.625C5.75 35.3212 6.02656 35.9889 6.51884 36.4812C7.01113 36.9734 7.67881 37.25 8.375 37.25H34.625C35.3212 37.25 35.9889 36.9734 36.4812 36.4812C36.9734 35.9889 37.25 35.3212 37.25 34.625V8.375C37.25 7.67881 36.9734 7.01113 36.4812 6.51884C35.9889 6.02656 35.3212 5.75 34.625 5.75ZM12.3125 8.375V9.6875C12.3125 10.0356 12.4508 10.3694 12.6969 10.6156C12.9431 10.8617 13.2769 11 13.625 11C13.9731 11 14.3069 10.8617 14.5531 10.6156C14.7992 10.3694 14.9375 10.0356 14.9375 9.6875V8.375H28.0625V9.6875C28.0625 10.0356 28.2008 10.3694 28.4469 10.6156C28.6931 10.8617 29.0269 11 29.375 11C29.7231 11 30.0569 10.8617 30.3031 10.6156C30.5492 10.3694 30.6875 10.0356 30.6875 9.6875V8.375H34.625V13.625H8.375V8.375H12.3125ZM34.625 34.625H8.375V16.25H34.625V34.625Z" fill="#D5CAB4"/>
</svg>
