<svg width="43" height="43" viewBox="0 0 43 43" fill="none" xmlns="http://www.w3.org/2000/svg">
<path d="M21.5 5.5C18.1254 5.5 14.8265 6.5007 12.0206 8.37555C9.21467 10.2504 7.02773 12.9152 5.73631 16.033C4.44489 19.1507 4.10699 22.5814 4.76535 25.8912C5.42371 29.201 7.04876 32.2413 9.43499 34.6275C11.8212 37.0137 14.8615 38.6388 18.1713 39.2971C21.4811 39.9555 24.9118 39.6176 28.0295 38.3262C31.1473 37.0348 33.8121 34.8478 35.687 32.0419C37.5618 29.236 38.5625 25.9371 38.5625 22.5625C38.5577 18.0387 36.7585 13.7016 33.5597 10.5028C30.3609 7.30396 26.0238 5.50478 21.5 5.5ZM21.5 37C18.6445 37 15.8532 36.1533 13.479 34.5668C11.1047 32.9804 9.25423 30.7256 8.16149 28.0875C7.06875 25.4494 6.78284 22.5465 7.33991 19.7459C7.89699 16.9453 9.27203 14.3728 11.2911 12.3536C13.3103 10.3345 15.8828 8.95949 18.6834 8.40241C21.484 7.84534 24.3869 8.13125 27.025 9.22399C29.6631 10.3167 31.9179 12.1672 33.5043 14.5415C35.0908 16.9157 35.9375 19.707 35.9375 22.5625C35.9332 26.3902 34.4107 30.0599 31.7041 32.7666C28.9974 35.4732 25.3277 36.9957 21.5 37ZM32.0885 25.4281C32.0885 25.7762 31.9502 26.11 31.7041 26.3562C31.4579 26.6023 30.776 26.7406 30.776 26.7406L21.5 23.875C21.1519 23.875 20.8181 23.7367 20.5719 23.4906C20.3258 23.2444 20.1875 22.9106 20.1875 22.5625V13.375C20.1875 13.0269 20.3258 12.6931 20.5719 12.4469C20.8181 12.2008 21.1519 12.0625 21.5 12.0625C21.8481 12.0625 22.1819 12.2008 22.4281 12.4469C22.6742 12.6931 22.8125 13.0269 22.8125 13.375V21.25L30.776 24.1156C31.1241 24.1156 31.4579 24.2539 31.7041 24.5C31.9502 24.7461 32.0885 25.08 32.0885 25.4281Z" fill="#D5CAB4"/>
</svg>
